# AST/ASF file generated using VICON BodyLanguage
# -----------------------------------------------
:version 1.10
:name VICON
:units
  mass 1.0
  length 0.45
  angle deg
:documentation
   .ast/.asf automatically generated from VICON data using
   VICON BodyBuilder and BodyLanguage model FoxedUp or BRILLIANT.MOD
:root
   order TX TY TZ RX RY RZ
   axis XYZ
   position 0 0 0  
   orientation 0 0 0 
:bonedata
  begin
     id 1 
     name lhipjoint
     direction 0.822369 -0.411937 0.392449 
     length 3.8167 
     axis 0 0 0  XYZ
  end
  begin
     id 2 
     name lfemur
     direction 0.34202 -0.939693 0  
     length 6.16791  
     axis 0 0 20  XYZ
    dof rx ry rz
    limits (-160.0 20.0)
           (-70.0 70.0)
           (-60.0 70.0)
  end
  begin
     id 3 
     name ltibia
     direction 0.34202 -0.939693 0   
     length 7.07101   
     axis 0 0 20   XYZ
    dof rx
    limits (-10.0 170.0)
  end
  begin
     id 4 
     name lfoot
     direction 0.028254 -0.0776273 0.996582   
     length 1.66799   
     axis -90 7.62852e-016 20   XYZ
    dof rx rz
    limits (-45.0 90.0)
           (-70.0 20.0)
  end
  begin
     id 5 
     name ltoes
     direction 1.53483e-011 -4.21688e-011 1   
     length 0.851674   
     axis -90 7.62852e-016 20   XYZ
    dof rx
    limits (-90.0 20.0)
  end
  begin
     id 6 
     name rhipjoint
     direction -0.822466 -0.411836 0.392353   
     length 3.81764  
     axis 0 0 0  XYZ 
  end
  begin
     id 7 
     name rfemur
     direction -0.34202 -0.939693 0   
     length 6.28636   
     axis 0 0 -20   XYZ
    dof rx ry rz
    limits (-160.0 20.0)
           (-70.0 70.0)
           (-70.0 60.0)
  end
  begin
     id 8 
     name rtibia
     direction -0.34202 -0.939693 0   
     length 6.85621   
     axis 0 0 -20   XYZ
    dof rx
    limits (-10.0 170.0)
 end
 begin
     id 9 
     name rfoot
     direction -0.0553036 -0.151945 0.98684   
     length 1.57293  
     axis -90 -7.62852e-016 -20   XYZ
    dof rx rz
    limits (-45.0 90.0)
           (-20.0 70.0)
  end
  begin
     id 10 
     name rtoes
     direction -1.53592e-011 -4.21964e-011 1   
     length 0.802812   
     axis -90 -7.62852e-016 -20   XYZ
    dof rx
    limits (-90.0 20.0)
  end
  begin
     id 11 
     name lowerback
     direction 0.00654913 0.996475 -0.0836396   
     length 1.97212   
     axis 0 0 0   XYZ
    dof rx ry rz
    limits (-20.0 45.0)
           (-30.0 30.0)
           (-30.0 30.0)
  end
  begin
     id 12 
     name upperback
     direction 0.0111875 0.994527 0.103877   
     length 1.89704   
     axis 0 0 0   XYZ
    dof rx ry rz
    limits (-20.0 45.0)
           (-30.0 30.0)
           (-30.0 30.0)
  end
  begin
     id 13 
     name thorax
     direction 0.00473652 0.989004 0.147814   
     length 1.94516   
     axis 0 0 0   XYZ
    dof rx ry rz
    limits (-20.0 45.0)
           (-30.0 30.0)
           (-30.0 30.0)
  end
  begin
     id 14 
     name lowerneck
     direction -0.00925808 0.999011 0.0434791   
     length 1.81771   
     axis 0 0 0   XYZ
    dof rx ry rz
    limits (-20.0 45.0)
           (-30.0 30.0)
           (-30.0 30.0)
  end
  begin
     id 15 
     name upperneck
     direction 0.00451595 0.964412 -0.264365   
     length 1.80434   
     axis 0 0 0   XYZ
    dof rx ry rz
    limits (-20.0 45.0)
           (-30.0 30.0)
           (-30.0 30.0)
  end
  begin
     id 16
     name head
     direction -0.00110849 0.995756 -0.0920241  
     length 1.84006  
     axis 0 0 0   XYZ
    dof rx ry rz
    limits (-20.0 45.0)
           (-30.0 30.0)
           (-30.0 30.0)
  end
  begin
     id 17 
     name lclavicle
     direction 0.921253 0.385213 0.0538957  
     length 3.67415  
     axis 0 0 0   XYZ
    dof ry rz
    limits (-20.0 10.0)
           (0.0 20.0)
  end
  begin
     id 18 
     name lhumerus
     direction 1 -4.48961e-011 6.73441e-028   
     length 4.32712   
     axis 180 -30 -90   XYZ
    dof rx ry rz
    limits (-60.0 90.0)
           (-90.0 90.0)
           (-90.0 90.0)
  end
  begin
     id 19
     name lradius
     direction 1 -4.48985e-011 -9.53507e-028   
     length 3.28587   
     axis 180 -30 -90   XYZ
    dof rx
    limits (-10.0 170.0)
  end
  begin
     id 20
     name lwrist
     direction 1 -4.48951e-011 -4.67472e-027   
     length 1.64293   
     axis 1.65735e-015 90 90   XYZ
    dof ry
    limits (-180.0 0.0)
 end
  begin
     id 21 
     name lhand
     direction 1 -4.48946e-011 -9.34945e-027   
     length 0.433158   
     axis 5.96574e-015 90 90   XYZ
    dof rx rz
    limits (-90.0 90.0)
           (-45.0 45.0)
  end
  begin
     id 22 
     name lfingers
     direction 1 -4.48882e-011 -1.86989e-026   
     length 0.349224   
     axis 1.19315e-014 90 90   XYZ
    dof rx
    limits (0.0 90.0)
  end
  begin
     id 23
     name lthumb
     direction 0.707107 -6.3493e-011 0.707107   
     length 0.501417   
     axis -90 45 2.85299e-015   XYZ
    dof rx rz
    limits (-45.0 45.0)
           (-45.0 45.0)
  end
  begin
     id 24 
     name rclavicle
     direction -0.884378 0.46502 -0.0403866   
     length 3.50218  
     axis 0 0 0   XYZ 
    dof ry rz
    limits (-10.0 20.0)
           (-20.0 0.0)
  end
  begin
     id 25 
     name rhumerus
     direction -1 -4.48964e-011 1.58188e-027  
     length 4.29104   
     axis 180 30 90   XYZ
    dof rx ry rz
    limits (-90.0 60.0)
           (-90.0 90.0)
           (-90.0 90.0)
  end
  begin
     id 26 
     name rradius
     direction -1 -4.48978e-011 -1.9722e-027   
     length 3.2272   
     axis 180 30 90   XYZ
    dof rx
    limits (-10.0 170.0)
  end
  begin
     id 27 
     name rwrist
     direction -1 -4.48969e-011 -4.67472e-027   
     length 1.6136   
     axis 1.65735e-015 -90 -90   XYZ
    dof ry
    limits (-180.0 0.0)
  end
  begin
     id 28
     name rhand
     direction -1 -4.48846e-011 -9.34945e-027   
     length 0.543623   
     axis 5.96574e-015 -90 -90   XYZ
    dof rx rz
    limits (-90.0 90.0)
           (-45.0 45.0)
  end
  begin
     id 29
     name rfingers
     direction -1 -4.49074e-011 -1.86989e-026   
     length 0.438283   
     axis 1.19315e-014 -90 -90   XYZ
    dof rx
    limits (0.0 90.0)
  end
  begin
     id 30
     name rthumb
     direction -0.707107 -6.34834e-011 0.707107   
     length 0.629289   
     axis -90 -45 -2.85299e-015   XYZ
    dof rx rz
    limits (-45.0 45.0)
           (-45.0 45.0)
  end
:hierarchy
  begin
    root lhipjoint rhipjoint lowerback
    lhipjoint lfemur
    lfemur ltibia
    ltibia lfoot
    lfoot ltoes
    rhipjoint rfemur
    rfemur rtibia
    rtibia rfoot
    rfoot rtoes
    lowerback upperback
    upperback thorax
    thorax lowerneck lclavicle rclavicle
    lowerneck upperneck
    upperneck head
    lclavicle lhumerus
    lhumerus lradius
    lradius lwrist
    lwrist lhand lthumb
    lhand lfingers
    rclavicle rhumerus
    rhumerus rradius
    rradius rwrist
    rwrist rhand rthumb
    rhand rfingers
  end

#!OML:ASF H:\GeneralSubjects\Female5\Project 1\Capture day 1\Session 1\Female5.ASF
:FULLY-SPECIFIED
:DEGREES
89
root 3.90813 15.9567 3.65109 -176.042 -60.4309 185.057
lowerback 10.2187 -0.623456 -3.1819
upperback -9.43717 -1.23655 3.97138
thorax -16.3 -0.0146693 6.68233
lowerneck -15.519 -3.09902 -5.40733
upperneck 26.2409 -2.85541 -2.83916
head 11.127 -2.47393 -0.575682
rclavicle 1.71949e-014 1.19271e-014
rhumerus -62.0198 15.8019 -56.7741
rradius 57.6528
rwrist -25.8185
rhand -36.5425 -18.8491
rfingers 7.12502
rthumb -9.63325 -48.6089
lclavicle 1.71949e-014 1.19271e-014
lhumerus -49.6181 22.1066 53.2682
lradius 66.5505
lwrist 19.4822
lhand -39.7848 40.16
lfingers 7.12502
lthumb -12.7604 69.7501
rfemur -10.9409 6.84389 23.638
rtibia 24.348
rfoot -19.4967 -0.689922
rtoes 19.2184
lfemur -17.7081 -8.63858 -17.0485
ltibia 25.0132
lfoot -10.3625 -14.8413
ltoes -8.52324
90
root 3.98979 15.9401 3.51922 -180.335 -64.6412 189.45
lowerback 10.9599 -1.99364 -3.24806
upperback -9.53993 -3.01737 5.13292
thorax -16.602 -0.718721 8.56365
lowerneck -12.7552 -2.48973 -5.66141
upperneck 24.4799 -2.37787 -1.99883
head 9.94411 -2.12674 -0.0849191
rclavicle 8.54774e-015 3.02153e-014
rhumerus -63.7314 15.5919 -53.6807
rradius 55.8322
rwrist -28.7404
rhand -37.2046 -19.3657
rfingers 7.12502
rthumb -10.272 -49.0949
lclavicle 8.54774e-015 3.02153e-014
lhumerus -44.0515 22.2838 57.3123
lradius 67.6881
lwrist 17.1836
lhand -37.3281 33.4833
lfingers 7.12502
lthumb -10.3912 63.2065
rfemur -10.1276 7.02503 25.5261
rtibia 25.3028
rfoot -17.4599 1.96239
rtoes 20.5106
lfemur -20.0468 -7.6096 -14.9756
ltibia 27.2135
lfoot -8.70277 -14.7643
ltoes -8.40231
91
root 4.0599 15.9157 3.39946 -185.694 -68.6198 194.874
lowerback 11.7828 -3.33492 -3.26956
upperback -9.69236 -4.78012 6.14027
thorax -16.9466 -1.42012 10.2971
lowerneck -12.6513 -2.11955 -4.54771
upperneck 25.0648 -1.9785 -2.72354
head 10.1006 -1.95668 -0.485976
rclavicle 3.11098e-014 -1.02573e-013
rhumerus -65.0757 15.3718 -50.6733
rradius 53.2922
rwrist -31.6947
rhand -37.1799 -19.2143
rfingers 7.12502
rthumb -10.2482 -48.9446
lclavicle 3.11098e-014 -1.02573e-013
lhumerus -38.2212 22.0077 61.4798
lradius 68.5465
lwrist 14.7827
lhand -38.7066 34.6781
lfingers 7.12502
lthumb -11.7207 64.3302
rfemur -9.47366 7.64194 27.0871
rtibia 26.3785
rfoot -14.925 6.07821
rtoes 21.7592
lfemur -22.478 -6.53775 -13.5072
ltibia 29.534
lfoot -8.07551 -14.7138
ltoes -9.95347
92
root 4.12621 15.8872 3.28618 -192.742 -72.0886 202.02
lowerback 12.6644 -4.56489 -3.35816
upperback -9.87607 -6.42012 7.10706
thorax -17.3166 -2.04766 12.0571
lowerneck -11.5155 -1.89067 -4.12807
upperneck 24.5157 -1.82052 -2.81794
head 9.67496 -1.84317 -0.54372
rclavicle -1.11319e-014 1.27222e-014
rhumerus -66.0165 15.0949 -47.6393
rradius 50.1896
rwrist -34.0437
rhand -36.995 -19.0002
rfingers 7.12502
rthumb -10.0698 -48.7393
lclavicle -1.11319e-014 1.27222e-014
lhumerus -32.1475 21.445 65.62
lradius 68.8355
lwrist 12.2342
lhand -38.9841 33.4896
lfingers 7.12502
lthumb -11.9883 63.1262
rfemur -8.79264 8.78427 28.6029
rtibia 26.9175
rfoot -14.5969 5.83538
rtoes 1.63806
lfemur -25.0373 -5.27708 -12.3846
ltibia 31.9642
lfoot -8.36639 -14.6864
ltoes -10.7254
93
root 4.18982 15.8527 3.17652 -201.504 -74.8469 210.956
lowerback 13.476 -5.63603 -3.6578
upperback -10.044 -7.89993 8.05507
thorax -17.5602 -2.58054 13.9124
lowerneck -10.7627 -1.5462 -3.5888
upperneck 24.3347 -1.42036 -3.23133
head 9.45452 -1.6567 -0.719041
rclavicle -2.28602e-015 1.08934e-013
rhumerus -66.7149 14.9917 -44.796
rradius 47.0906
rwrist -35.995
rhand -37.7095 -19.9414
rfingers 7.12502
rthumb -10.759 -49.6459
lclavicle -2.28602e-015 1.08934e-013
lhumerus -25.947 20.4659 69.7333
lradius 68.6806
lwrist 10.6588
lhand -40.4071 36.9539
lfingers 7.12502
lthumb -13.3602 66.5056
rfemur -8.08758 10.2404 30.0383
rtibia 26.827
rfoot -11.5871 9.58967
rtoes -3.71881
lfemur -27.5855 -3.86051 -11.638
ltibia 34.2606
lfoot -9.61662 -15.0535
ltoes -10.5875
94
root 4.24551 15.8056 3.07803 -211.498 -76.827 221.241
lowerback 14.0561 -6.5081 -4.03995
upperback -10.373 -9.09977 9.04683
thorax -17.4608 -3.08186 15.3258
lowerneck -10.5107 -1.3712 -2.93176
upperneck 24.3191 -1.24618 -3.58927
head 9.39011 -1.55746 -0.930522
rclavicle -1.09332e-015 2.8625e-014
rhumerus -67.3186 14.7983 -42.2162
rradius 44.1087
rwrist -37.3202
rhand -38.653 -21.633
rfingers 7.12502
rthumb -11.6691 -51.288
lclavicle -1.09332e-015 2.8625e-014
lhumerus -19.65 19.2252 73.5947
lradius 68.0343
lwrist 9.212
lhand -41.5613 37.7799
lfingers 7.12502
lthumb -14.4725 67.2552
rfemur -7.65296 11.3162 31.2735
rtibia 26.6051
rfoot -9.04491 13.1424
rtoes -8.08271
lfemur -29.9179 -2.40592 -11.2616
ltibia 36.0385
lfoot -11.5552 -15.4106
ltoes -12.6508
95
root 4.28983 15.7447 2.99261 -221.551 -78.0253 231.724
lowerback 14.3728 -7.16329 -4.35904
upperback -10.4967 -10.0499 9.62904
thorax -17.3943 -3.44588 16.5002
lowerneck -10.3777 -1.20969 -2.17955
upperneck 24.2321 -1.13565 -3.73967
head 9.32408 -1.44827 -1.09308
rclavicle 1.21855e-013 -2.38542e-014
rhumerus -67.8409 14.3131 -39.8218
rradius 41.3661
rwrist -37.5717
rhand -39.3965 -23.1369
rfingers 7.12502
rthumb -12.386 -52.7499
lclavicle 1.21855e-013 -2.38542e-014
lhumerus -13.2527 17.7967 77.1917
lradius 66.7265
lwrist 7.68606
lhand -40.2079 34.4836
lfingers 7.12502
lthumb -13.1682 64.0477
rfemur -7.62283 11.717 32.3044
rtibia 26.4494
rfoot -8.59634 15.5132
rtoes -8.92964
lfemur -31.9054 -1.03348 -11.0438
ltibia 37.0727
lfoot -13.531 -15.3454
ltoes -14.7287
96
root 4.3145 15.6674 2.91762 -231.052 -78.4748 241.768
lowerback 14.3111 -7.65838 -4.4305
upperback -10.5903 -10.7322 10.0653
thorax -17.1742 -3.75818 17.2089
lowerneck -10.3153 -1.08427 -1.47922
upperneck 24.2292 -1.1205 -3.63087
head 9.30292 -1.36152 -1.17077
rclavicle -1.76918e-014 -1.19271e-014
rhumerus -68.285 13.6849 -37.605
rradius 39.1608
rwrist -37.0065
rhand -39.9816 -26.5381
rfingers 7.12502
rthumb -12.9501 -56.1163
lclavicle -1.76918e-014 -1.19271e-014
lhumerus -7.21918 16.2824 80.4999
lradius 64.8703
lwrist 5.78776
lhand -42.4722 36.9662
lfingers 7.12502
lthumb -15.35 66.3764
rfemur -7.72985 11.4768 33.4547
rtibia 26.2397
rfoot -10.2018 15.9199
rtoes -9.01646
lfemur -33.5342 0.0173131 -10.5425
ltibia 37.5423
lfoot -14.7592 -15.1862
ltoes -12.9726
97
root 4.33058 15.5844 2.85669 -239.701 -78.1096 251.094
lowerback 14.0702 -8.05235 -3.87542
upperback -10.6975 -11.1372 10.4706
thorax -17.0625 -4.01819 17.4304
lowerneck -10.2097 -0.96174 -0.895636
upperneck 24.2069 -1.11479 -3.40713
head 9.26954 -1.27718 -1.18967
rclavicle -2.38542e-015 7.15625e-015
rhumerus -68.4873 13.0066 -35.46
rradius 37.3549
rwrist -35.9016
rhand -39.4548 -22.2055
rfingers 7.12502
rthumb -12.4421 -51.8151
lclavicle -2.38542e-015 7.15625e-015
lhumerus -2.1837 14.6099 83.341
lradius 63.0274
lwrist 3.96546
lhand -43.0855 37.2327
lfingers 7.12502
lthumb -15.9407 66.5967
rfemur -7.89201 10.7439 35.0731
rtibia 25.8035
rfoot -12.1638 15.9018
rtoes -9.13467
lfemur -35.1364 0.117766 -8.96339
ltibia 38.0305
lfoot -15.826 -15.1922
ltoes -10.7707
98
root 4.35146 15.5106 2.8141 -245.104 -77.2885 257.163
lowerback 14.046 -8.27137 -3.175
upperback -10.8478 -11.2762 10.8362
thorax -17.2639 -4.13037 17.5439
lowerneck -10.0266 -0.774931 -0.532246
upperneck 24.2133 -1.01645 -3.03761
head 9.23684 -1.1571 -1.1116
rclavicle 9.89948e-014 7.95139e-014
rhumerus -68.2823 12.5693 -33.6198
rradius 36.634
rwrist -35.3126
rhand -39.3262 -22.0137
rfingers 7.12502
rthumb -12.3182 -51.6309
lclavicle 9.89948e-014 7.95139e-014
lhumerus 1.50239 12.7469 85.5588
lradius 61.672
lwrist 3.04666
lhand -43.445 37.9477
lfingers 7.12502
lthumb -16.2869 67.2837
rfemur -8.05308 10.0665 36.6911
rtibia 25.0098
rfoot -13.9158 15.2706
rtoes -7.31289
lfemur -36.9356 0.208697 -7.19888
ltibia 39.109
lfoot -16.7158 -15.3882
ltoes -10.0274
99
root 4.36513 15.448 2.79791 -246.319 -76.6004 258.827
lowerback 14.1841 -8.24649 -2.78111
upperback -10.9363 -11.1493 11.017
thorax -17.5483 -4.07452 17.5839
lowerneck -11.0723 -0.472765 0.513737
upperneck 25.1221 -0.727068 -3.30752
head 9.75359 -0.974645 -1.37872
rclavicle -7.45443e-015 0
rhumerus -67.7331 12.5556 -32.7186
rradius 36.9956
rwrist -36.4685
rhand -40.5648 -22.7564
rfingers 7.12502
rthumb -13.5122 -52.298
lclavicle -7.45443e-015 0
lhumerus 3.81108 10.8725 87.2603
lradius 60.9548
lwrist 2.70415
lhand -44.2663 38.8134
lfingers 7.12502
lthumb -17.0776 68.0828
rfemur -7.87364 9.76197 37.6552
rtibia 23.6985
rfoot -14.7566 14.3612
rtoes -5.79096
lfemur -38.4102 0.400336 -6.02095
ltibia 40.5245
lfoot -17.3532 -15.8821
ltoes -9.42415
100
root 4.36818 15.3968 2.81428 -244.091 -75.9959 256.932
lowerback 14.2713 -8.029 -2.51311
upperback -10.9315 -10.7832 11.1067
thorax -17.7479 -3.91018 17.4992
lowerneck -12.2955 -0.0564925 1.75174
upperneck 25.7635 -0.255519 -3.83187
head 10.2273 -0.704217 -1.74323
rclavicle 1.308e-013 -9.06458e-014
rhumerus -66.5297 13.0274 -32.7166
rradius 38.269
rwrist -38.7176
rhand -41.9891 -27.4337
rfingers 7.12502
rthumb -14.8846 -56.8789
lclavicle 1.308e-013 -9.06458e-014
lhumerus 4.8327 9.33019 88.4368
lradius 60.922
lwrist 2.3397
lhand -45.5041 39.5263
lfingers 7.12502
lthumb -18.2687 68.6884
rfemur -7.69337 9.78682 38.0238
rtibia 22.4494
rfoot -14.6024 13.8543
rtoes -5.83907
lfemur -39.4018 0.637736 -5.31753
ltibia 41.9362
lfoot -17.8619 -16.5166
ltoes -9.04154
101
root 4.36489 15.3599 2.85501 -239.062 -75.2096 252.266
lowerback 14.2502 -7.63045 -2.24015
upperback -10.9084 -10.1702 11.1679
thorax -17.9338 -3.64055 17.2944
lowerneck -11.8028 0.262868 1.85209
upperneck 25.2704 0.138534 -3.63257
head 9.96656 -0.476251 -1.62767
rclavicle -7.21588e-014 2.62396e-014
rhumerus -64.6517 13.9578 -33.3209
rradius 39.9929
rwrist -40.8917
rhand -43.0242 -28.0352
rfingers 7.12502
rthumb -15.8816 -57.4039
lclavicle -7.21588e-014 2.62396e-014
lhumerus 4.67117 8.04503 88.9364
lradius 61.7241
lwrist 1.68926
lhand -46.0653 38.0113
lfingers 7.12502
lthumb -18.8085 67.122
rfemur -8.19423 10.1772 38.0738
rtibia 22.3434
rfoot -13.9175 13.9727
rtoes -7.25945
lfemur -40.0103 0.869596 -4.67167
ltibia 43.2115
lfoot -18.4182 -17.0282
ltoes -7.96917
